<svg width="64" height="64" viewBox="0 0 64 64" fill="none" xmlns="http://www.w3.org/2000/svg">
<path d="M41.4146 50.5851C41.6004 50.771 41.7478 50.9916 41.8484 51.2343C41.949 51.4771 42.0007 51.7373 42.0007 52.0001C42.0007 52.2629 41.949 52.5231 41.8484 52.7659C41.7478 53.0087 41.6004 53.2293 41.4146 53.4151C41.2288 53.601 41.0082 53.7484 40.7654 53.8489C40.5226 53.9495 40.2624 54.0013 39.9996 54.0013C39.7368 54.0013 39.4766 53.9495 39.2338 53.8489C38.991 53.7484 38.7704 53.601 38.5846 53.4151L18.5846 33.4151C18.3987 33.2294 18.2511 33.0088 18.1505 32.766C18.0499 32.5232 17.998 32.263 17.998 32.0001C17.998 31.7373 18.0499 31.4771 18.1505 31.2343C18.2511 30.9915 18.3987 30.7709 18.5846 30.5851L38.5846 10.5851C38.9599 10.2099 39.4689 9.99902 39.9996 9.99902C40.5303 9.99902 41.0393 10.2099 41.4146 10.5851C41.7899 10.9604 42.0007 11.4694 42.0007 12.0001C42.0007 12.5309 41.7899 13.0399 41.4146 13.4151L22.8271 32.0001L41.4146 50.5851Z" fill="#211F26"/>
</svg>
