<svg width="64" height="64" viewBox="0 0 64 64" fill="none" xmlns="http://www.w3.org/2000/svg">
<path d="M52 20H44V14C44 10.8174 42.7357 7.76515 40.4853 5.51472C38.2348 3.26428 35.1826 2 32 2C28.8174 2 25.7652 3.26428 23.5147 5.51472C21.2643 7.76515 20 10.8174 20 14V20H12C10.9391 20 9.92172 20.4214 9.17157 21.1716C8.42143 21.9217 8 22.9391 8 24V52C8 53.0609 8.42143 54.0783 9.17157 54.8284C9.92172 55.5786 10.9391 56 12 56H52C53.0609 56 54.0783 55.5786 54.8284 54.8284C55.5786 54.0783 56 53.0609 56 52V24C56 22.9391 55.5786 21.9217 54.8284 21.1716C54.0783 20.4214 53.0609 20 52 20ZM32 41C31.4067 41 30.8266 40.8241 30.3333 40.4944C29.8399 40.1648 29.4554 39.6962 29.2284 39.148C29.0013 38.5999 28.9419 37.9967 29.0576 37.4147C29.1734 36.8328 29.4591 36.2982 29.8787 35.8787C30.2982 35.4591 30.8328 35.1734 31.4147 35.0576C31.9967 34.9419 32.5999 35.0013 33.148 35.2284C33.6962 35.4554 34.1648 35.8399 34.4944 36.3333C34.8241 36.8266 35 37.4067 35 38C35 38.7957 34.6839 39.5587 34.1213 40.1213C33.5587 40.6839 32.7956 41 32 41ZM40 20H24V14C24 11.8783 24.8429 9.84344 26.3431 8.34315C27.8434 6.84285 29.8783 6 32 6C34.1217 6 36.1566 6.84285 37.6569 8.34315C39.1571 9.84344 40 11.8783 40 14V20Z" fill="#211F26"/>
</svg>
