<svg width="64" height="64" viewBox="0 0 64 64" fill="none" xmlns="http://www.w3.org/2000/svg">
<path d="M58.8299 20.3429L43.6574 5.17287C43.286 4.80134 42.845 4.50662 42.3596 4.30555C41.8743 4.10447 41.3541 4.00098 40.8287 4.00098C40.3033 4.00098 39.7831 4.10447 39.2978 4.30555C38.8124 4.50662 38.3714 4.80134 37.9999 5.17287L24.5924 18.6229C21.9274 17.7879 15.8424 16.7804 9.49245 21.9079C9.05476 22.2598 8.6961 22.7 8.4398 23.1997C8.1835 23.6995 8.03532 24.2476 8.0049 24.8084C7.97447 25.3692 8.06249 25.9302 8.26322 26.4547C8.46396 26.9793 8.7729 27.4556 9.16995 27.8529L21.2499 39.9279L10.5849 50.5854C10.2097 50.9607 9.99884 51.4697 9.99884 52.0004C9.99884 52.5311 10.2097 53.0401 10.5849 53.4154C10.9602 53.7907 11.4692 54.0015 11.9999 54.0015C12.5307 54.0015 13.0397 53.7907 13.4149 53.4154L24.0724 42.7504L36.1449 54.8229C36.5161 55.1956 36.9571 55.4914 37.4427 55.6935C37.9283 55.8955 38.449 55.9998 38.9749 56.0004C39.0699 56.0004 39.1624 56.0004 39.2574 56.0004C39.8276 55.9609 40.3827 55.7991 40.8848 55.526C41.3869 55.253 41.8244 54.875 42.1674 54.4179C47.0774 47.8929 46.6049 42.5879 45.4649 39.4179L58.8324 26.0004C59.2038 25.6288 59.4983 25.1876 59.6992 24.7022C59.9001 24.2167 60.0033 23.6965 60.0031 23.1711C60.0029 22.6457 59.8991 22.1256 59.6978 21.6403C59.4966 21.155 59.2016 20.7142 58.8299 20.3429ZM55.9999 23.1729L41.6824 37.5379C41.3868 37.8347 41.1917 38.2168 41.1249 38.6304C41.0581 39.0439 41.1228 39.4681 41.3099 39.8429C43.6749 44.5754 40.8599 49.4904 38.9749 51.9979L11.9999 25.0204C15.0199 22.5854 17.9099 21.9429 20.1199 21.9429C21.5223 21.9237 22.913 22.1988 24.2024 22.7504C24.5786 22.9386 25.0046 23.0035 25.4198 22.9357C25.8349 22.868 26.2182 22.671 26.5149 22.3729L40.8299 8.00037L55.9999 23.1704V23.1729Z" fill="#211F26"/>
</svg>
